<?xml version="1.0" encoding="utf-8"?>
<!-- Generator: Adobe Illustrator 26.0.1, SVG Export Plug-In . SVG Version: 6.00 Build 0)  -->
<!DOCTYPE svg PUBLIC "-//W3C//DTD SVG 1.1//EN" "http://www.w3.org/Graphics/SVG/1.1/DTD/svg11.dtd" [
	<!ENTITY ns_extend "http://ns.adobe.com/Extensibility/1.0/">
	<!ENTITY ns_ai "http://ns.adobe.com/AdobeIllustrator/10.0/">
	<!ENTITY ns_graphs "http://ns.adobe.com/Graphs/1.0/">
	<!ENTITY ns_vars "http://ns.adobe.com/Variables/1.0/">
	<!ENTITY ns_imrep "http://ns.adobe.com/ImageReplacement/1.0/">
	<!ENTITY ns_sfw "http://ns.adobe.com/SaveForWeb/1.0/">
	<!ENTITY ns_custom "http://ns.adobe.com/GenericCustomNamespace/1.0/">
	<!ENTITY ns_adobe_xpath "http://ns.adobe.com/XPath/1.0/">
]>
<svg version="1.1" id="Layer_1" xmlns:x="&ns_extend;" xmlns:i="&ns_ai;" xmlns:graph="&ns_graphs;"
	 xmlns="http://www.w3.org/2000/svg" xmlns:xlink="http://www.w3.org/1999/xlink" x="0px" y="0px" width="100px" height="100px"
	 viewBox="0 0 100 100" enable-background="new 0 0 100 100" xml:space="preserve">
<metadata>
	<sfw  xmlns="&ns_sfw;">
		<slices></slices>
		<sliceSourceBounds  bottomLeftOrigin="true" height="90.927" width="91.109" x="4.445" y="-95.464"></sliceSourceBounds>
	</sfw>
</metadata>
<g>
	<g>
		<path fill="#FFFFFF" d="M49.94,95.462C24.457,95.22,4.26,74.916,4.447,49.727C4.633,24.567,25.388,4.232,50.566,4.54
			c25.079,0.307,45.182,20.893,44.987,46.067C95.361,75.375,74.696,95.696,49.94,95.462z M50.067,13.371
			C29.733,13.33,13.324,29.694,13.291,50.045c-0.032,20.139,16.412,36.667,36.516,36.704c20.346,0.037,36.857-16.327,36.9-36.573
			C86.752,29.83,70.408,13.412,50.067,13.371z"/>
		<path fill="#FFFFFF" d="M43.052,55.676c0.934-0.892,1.611-1.513,2.26-2.161c6.526-6.513,13.041-13.038,19.575-19.544
			c2.453-2.442,4.889-2.693,6.878-0.775c1.934,1.864,1.736,4.556-0.623,6.922c-8.064,8.085-16.145,16.154-24.246,24.202
			c-2.627,2.61-4.811,2.605-7.438,0.017c-3.615-3.561-7.208-7.145-10.763-10.765c-2.196-2.237-2.331-4.932-0.45-6.722
			c1.907-1.816,4.465-1.61,6.721,0.629C37.651,50.146,40.284,52.866,43.052,55.676z"/>
	</g>
</g>
</svg>
