<?xml version="1.0" encoding="utf-8"?>
<!-- Generator: Adobe Illustrator 26.0.1, SVG Export Plug-In . SVG Version: 6.00 Build 0)  -->
<!DOCTYPE svg PUBLIC "-//W3C//DTD SVG 1.1//EN" "http://www.w3.org/Graphics/SVG/1.1/DTD/svg11.dtd" [
	<!ENTITY ns_extend "http://ns.adobe.com/Extensibility/1.0/">
	<!ENTITY ns_ai "http://ns.adobe.com/AdobeIllustrator/10.0/">
	<!ENTITY ns_graphs "http://ns.adobe.com/Graphs/1.0/">
	<!ENTITY ns_vars "http://ns.adobe.com/Variables/1.0/">
	<!ENTITY ns_imrep "http://ns.adobe.com/ImageReplacement/1.0/">
	<!ENTITY ns_sfw "http://ns.adobe.com/SaveForWeb/1.0/">
	<!ENTITY ns_custom "http://ns.adobe.com/GenericCustomNamespace/1.0/">
	<!ENTITY ns_adobe_xpath "http://ns.adobe.com/XPath/1.0/">
]>
<svg version="1.1" id="Layer_1" xmlns:x="&ns_extend;" xmlns:i="&ns_ai;" xmlns:graph="&ns_graphs;"
	 xmlns="http://www.w3.org/2000/svg" xmlns:xlink="http://www.w3.org/1999/xlink" x="0px" y="0px" width="100px" height="100px"
	 viewBox="0 0 100 100" enable-background="new 0 0 100 100" xml:space="preserve">
<metadata>
	<sfw  xmlns="&ns_sfw;">
		<slices></slices>
		<sliceSourceBounds  bottomLeftOrigin="true" height="76.991" width="77.538" x="11.231" y="-88.495"></sliceSourceBounds>
	</sfw>
</metadata>
<g>
	<path fill="#FFFFFF" d="M86.489,78.955c-0.214-0.216-11.05-11.11-16.274-16.319c-0.138-0.137-0.283-0.238-0.423-0.363
		c3.706-5.249,5.905-11.634,5.905-18.534c0-17.774-14.458-32.234-32.232-32.234S11.231,25.965,11.231,43.739
		s14.461,32.233,32.234,32.233c7.17,0,13.777-2.382,19.137-6.357c0.119,0.131,0.217,0.264,0.347,0.395
		c2.247,2.258,13.092,13.144,16.274,16.316c1.421,1.419,2.993,2.169,4.549,2.169c0.014,0,0.03-0.001,0.046-0.001
		c1.29-0.012,2.486-0.549,3.454-1.555C89.512,84.615,89.227,81.704,86.489,78.955z M43.465,67.643
		c-13.181,0-23.906-10.724-23.906-23.905c0-13.182,10.725-23.906,23.906-23.906s23.903,10.724,23.903,23.906
		C67.368,56.92,56.646,67.643,43.465,67.643z"/>
</g>
</svg>
