<?xml version="1.0" encoding="utf-8"?>
<!-- Generator: Adobe Illustrator 26.0.1, SVG Export Plug-In . SVG Version: 6.00 Build 0)  -->
<!DOCTYPE svg PUBLIC "-//W3C//DTD SVG 1.1//EN" "http://www.w3.org/Graphics/SVG/1.1/DTD/svg11.dtd" [
	<!ENTITY ns_extend "http://ns.adobe.com/Extensibility/1.0/">
	<!ENTITY ns_ai "http://ns.adobe.com/AdobeIllustrator/10.0/">
	<!ENTITY ns_graphs "http://ns.adobe.com/Graphs/1.0/">
	<!ENTITY ns_vars "http://ns.adobe.com/Variables/1.0/">
	<!ENTITY ns_imrep "http://ns.adobe.com/ImageReplacement/1.0/">
	<!ENTITY ns_sfw "http://ns.adobe.com/SaveForWeb/1.0/">
	<!ENTITY ns_custom "http://ns.adobe.com/GenericCustomNamespace/1.0/">
	<!ENTITY ns_adobe_xpath "http://ns.adobe.com/XPath/1.0/">
]>
<svg version="1.1" id="Layer_1" xmlns:x="&ns_extend;" xmlns:i="&ns_ai;" xmlns:graph="&ns_graphs;"
	 xmlns="http://www.w3.org/2000/svg" xmlns:xlink="http://www.w3.org/1999/xlink" x="0px" y="0px" width="100px" height="100px"
	 viewBox="0 0 100 100" enable-background="new 0 0 100 100" xml:space="preserve">
<metadata>
	<sfw  xmlns="&ns_sfw;">
		<slices></slices>
		<sliceSourceBounds  bottomLeftOrigin="true" height="87.294" width="97.161" x="1.42" y="-93.647"></sliceSourceBounds>
	</sfw>
</metadata>
<g>
	<g>
		<g>
			<path fill="#FFFFFF" d="M86.687,93.647H13.313c-4.292,0-8.136-2.22-10.283-5.939s-2.147-8.158,0-11.876l36.686-63.541l0,0
				c2.147-3.718,5.991-5.939,10.283-5.939c4.294,0,8.139,2.22,10.286,5.939L96.97,75.833c2.147,3.718,2.147,8.158,0,11.876
				S90.979,93.647,86.687,93.647z M46.927,16.456L10.241,79.997c-0.924,1.601-0.306,3.015,0,3.547
				c0.309,0.534,1.225,1.774,3.072,1.774h73.374c1.846,0,2.763-1.24,3.072-1.774c0.306-0.533,0.924-1.947,0-3.547L53.073,16.456
				c-0.924-1.601-2.456-1.774-3.074-1.774C49.383,14.681,47.852,14.855,46.927,16.456z"/>
		</g>
		<g>
			<path fill="#FFFFFF" d="M54.4,35.323c-0.004-3.341-1.768-5.384-4.454-5.335c-2.763,0.05-4.308,1.95-4.316,5.411
				c-0.007,3.188-0.038,18.549-0.032,23.042c0.004,3.341,1.768,5.384,4.454,5.335c2.763-0.05,4.308-1.95,4.316-5.411
				C54.369,58.062,54.41,42.7,54.4,35.323z"/>
			<circle fill="#FFFFFF" cx="50" cy="73.34" r="5.269"/>
		</g>
	</g>
</g>
</svg>
