<?xml version="1.0" encoding="utf-8"?>
<!-- Generator: Adobe Illustrator 25.4.1, SVG Export Plug-In . SVG Version: 6.00 Build 0)  -->
<!DOCTYPE svg PUBLIC "-//W3C//DTD SVG 1.1//EN" "http://www.w3.org/Graphics/SVG/1.1/DTD/svg11.dtd" [
	<!ENTITY ns_extend "http://ns.adobe.com/Extensibility/1.0/">
	<!ENTITY ns_ai "http://ns.adobe.com/AdobeIllustrator/10.0/">
	<!ENTITY ns_graphs "http://ns.adobe.com/Graphs/1.0/">
	<!ENTITY ns_vars "http://ns.adobe.com/Variables/1.0/">
	<!ENTITY ns_imrep "http://ns.adobe.com/ImageReplacement/1.0/">
	<!ENTITY ns_sfw "http://ns.adobe.com/SaveForWeb/1.0/">
	<!ENTITY ns_custom "http://ns.adobe.com/GenericCustomNamespace/1.0/">
	<!ENTITY ns_adobe_xpath "http://ns.adobe.com/XPath/1.0/">
]>
<svg version="1.1" id="Layer_1" xmlns:x="&ns_extend;" xmlns:i="&ns_ai;" xmlns:graph="&ns_graphs;"
	 xmlns="http://www.w3.org/2000/svg" xmlns:xlink="http://www.w3.org/1999/xlink" x="0px" y="0px" width="512px" height="64px"
	 viewBox="0 0 512 64" enable-background="new 0 0 512 64" xml:space="preserve">
<metadata>
	<sfw  xmlns="&ns_sfw;">
		<slices></slices>
		<sliceSourceBounds  bottomLeftOrigin="true" height="62.877" width="511.458" x="704.271" y="-571.439"></sliceSourceBounds>
	</sfw>
</metadata>
<g id="MetaBrands_Logo__x28_Dark_BG_x29__512">
	<g>
		<g opacity="0.57">
			<path fill="#FFFFFF" d="M330.658,15.231c2.062,0,3.83,0.199,5.305,0.596c1.474,0.397,2.685,0.97,3.631,1.719
				c0.948,0.749,1.647,1.654,2.097,2.715c0.45,1.062,0.676,2.265,0.676,3.609c0,0.795-0.122,1.558-0.367,2.292
				c-0.245,0.733-0.619,1.417-1.123,2.051c-0.504,0.634-1.139,1.203-1.903,1.707c-0.764,0.504-1.665,0.925-2.703,1.261
				c4.781,0.947,7.172,3.445,7.172,7.493c0,1.406-0.26,2.685-0.779,3.838c-0.52,1.153-1.276,2.15-2.268,2.99
				c-0.993,0.84-2.215,1.49-3.667,1.948c-1.451,0.458-3.101,0.687-4.949,0.687h-11.847V15.231H330.658z M324.814,19.058v10.77h5.614
				c2.398,0,4.182-0.485,5.35-1.455c1.169-0.97,1.753-2.28,1.753-3.93c0-1.879-0.558-3.246-1.673-4.101
				c-1.115-0.855-2.849-1.283-5.201-1.283H324.814z M331.688,44.264c1.237,0,2.295-0.145,3.174-0.435s1.596-0.687,2.154-1.192
				c0.557-0.504,0.967-1.104,1.226-1.799c0.259-0.695,0.389-1.455,0.389-2.28c0-1.634-0.565-2.922-1.696-3.861
				c-1.131-0.939-2.88-1.409-5.247-1.409h-6.874v10.976H331.688z"/>
			<path fill="#FFFFFF" d="M376.991,48.137h-4.354c-0.871,0-1.505-0.344-1.902-1.031L362.6,35.694
				c-0.26-0.382-0.543-0.653-0.848-0.813c-0.305-0.16-0.764-0.241-1.375-0.241h-3.185v13.497h-4.881V15.231h9.487
				c2.123,0,3.953,0.217,5.488,0.653c1.536,0.435,2.803,1.054,3.804,1.856c1,0.802,1.742,1.768,2.223,2.899
				c0.481,1.131,0.722,2.399,0.722,3.804c0,1.146-0.176,2.223-0.527,3.231c-0.352,1.009-0.868,1.914-1.547,2.716
				c-0.68,0.802-1.509,1.493-2.487,2.074c-0.978,0.581-2.085,1.024-3.322,1.329c0.611,0.367,1.138,0.879,1.581,1.535L376.991,48.137
				z M361.637,31.088c1.253,0,2.356-0.152,3.312-0.458c0.954-0.305,1.753-0.737,2.394-1.295c0.641-0.557,1.123-1.222,1.444-1.994
				c0.32-0.771,0.481-1.623,0.481-2.555c0-1.894-0.623-3.323-1.868-4.285c-1.245-0.962-3.112-1.444-5.602-1.444h-4.606v12.03
				H361.637z"/>
			<path fill="#FFFFFF" d="M410.95,48.137h-3.758c-0.428,0-0.779-0.107-1.054-0.321c-0.275-0.214-0.474-0.489-0.596-0.825
				l-2.91-7.631h-14.506l-2.91,7.631c-0.108,0.29-0.306,0.554-0.596,0.79c-0.291,0.237-0.642,0.355-1.054,0.355h-3.759
				l13.108-32.906h4.926L410.95,48.137z M401.303,35.877l-4.881-12.764c-0.352-0.871-0.703-1.971-1.055-3.3
				c-0.168,0.657-0.34,1.268-0.515,1.833c-0.176,0.565-0.348,1.069-0.516,1.512l-4.858,12.718H401.303z"/>
			<path fill="#FFFFFF" d="M444.612,15.231v32.906h-2.475c-0.382,0-0.699-0.069-0.951-0.206c-0.252-0.138-0.508-0.359-0.768-0.665
				l-18.584-24.038c0.031,0.413,0.057,0.817,0.08,1.214c0.023,0.398,0.035,0.772,0.035,1.123v22.571h-4.285V15.231h2.52
				c0.427,0,0.748,0.049,0.963,0.149c0.214,0.099,0.45,0.325,0.71,0.676l18.63,24.061c-0.046-0.443-0.08-0.874-0.103-1.295
				c-0.024-0.42-0.035-0.813-0.035-1.18v-22.41H444.612z"/>
			<path fill="#FFFFFF" d="M484.071,31.684c0,2.46-0.393,4.697-1.18,6.714c-0.787,2.016-1.899,3.747-3.334,5.19
				c-1.436,1.444-3.155,2.563-5.156,3.357c-2.001,0.795-4.224,1.192-6.668,1.192h-12.374V15.231h12.374
				c2.444,0,4.666,0.397,6.668,1.192c2.001,0.794,3.72,1.913,5.156,3.357c1.435,1.444,2.547,3.178,3.334,5.201
				C483.677,27.006,484.071,29.24,484.071,31.684z M479.076,31.684c0-1.956-0.268-3.708-0.802-5.259
				c-0.535-1.55-1.295-2.864-2.28-3.941s-2.177-1.898-3.575-2.464c-1.398-0.565-2.96-0.848-4.686-0.848h-7.47v25.023h7.47
				c1.726,0,3.288-0.283,4.686-0.848c1.398-0.565,2.59-1.386,3.575-2.463c0.985-1.077,1.745-2.387,2.28-3.93
				C478.808,35.412,479.076,33.654,479.076,31.684z"/>
			<path fill="#FFFFFF" d="M509.85,20.593c-0.152,0.26-0.313,0.451-0.481,0.573c-0.168,0.122-0.382,0.183-0.642,0.183
				c-0.275,0-0.588-0.126-0.939-0.378c-0.352-0.252-0.791-0.535-1.318-0.848c-0.528-0.313-1.157-0.596-1.891-0.848
				c-0.733-0.252-1.612-0.378-2.635-0.378c-0.963,0-1.807,0.126-2.532,0.378c-0.726,0.252-1.333,0.596-1.822,1.031
				c-0.489,0.435-0.86,0.947-1.112,1.535c-0.252,0.588-0.378,1.226-0.378,1.913c0,0.886,0.225,1.619,0.676,2.2
				c0.45,0.581,1.043,1.077,1.776,1.49c0.733,0.412,1.566,0.771,2.498,1.077c0.931,0.306,1.886,0.623,2.864,0.951
				c0.978,0.329,1.932,0.707,2.864,1.134c0.931,0.428,1.764,0.967,2.498,1.616c0.733,0.65,1.325,1.444,1.775,2.383
				c0.451,0.939,0.676,2.089,0.676,3.449c0,1.451-0.248,2.811-0.744,4.079c-0.497,1.268-1.219,2.376-2.166,3.323
				c-0.948,0.947-2.112,1.692-3.495,2.234c-1.383,0.542-2.952,0.813-4.709,0.813c-1.054,0-2.078-0.103-3.071-0.309
				c-0.992-0.206-1.932-0.496-2.818-0.871c-0.886-0.374-1.715-0.825-2.487-1.352c-0.771-0.527-1.463-1.119-2.074-1.776l1.398-2.338
				c0.138-0.183,0.302-0.336,0.493-0.458c0.191-0.122,0.408-0.183,0.653-0.183c0.32,0,0.691,0.168,1.111,0.504
				c0.42,0.336,0.94,0.707,1.559,1.111c0.619,0.405,1.359,0.775,2.222,1.111c0.863,0.336,1.914,0.504,3.151,0.504
				c1.008,0,1.91-0.133,2.704-0.401c0.794-0.267,1.463-0.649,2.005-1.146c0.542-0.496,0.958-1.096,1.248-1.799
				c0.29-0.702,0.436-1.482,0.436-2.338c0-0.962-0.222-1.749-0.665-2.36c-0.443-0.611-1.031-1.123-1.764-1.535
				s-1.566-0.764-2.498-1.054c-0.932-0.29-1.887-0.592-2.864-0.905c-0.978-0.313-1.932-0.676-2.864-1.088
				c-0.932-0.413-1.764-0.951-2.498-1.616c-0.733-0.665-1.321-1.497-1.764-2.498c-0.444-1-0.665-2.234-0.665-3.701
				c0-1.176,0.229-2.314,0.688-3.414c0.459-1.1,1.127-2.074,2.005-2.922c0.878-0.848,1.959-1.528,3.242-2.04
				c1.283-0.512,2.75-0.768,4.399-0.768c1.848,0,3.548,0.294,5.099,0.882c1.55,0.588,2.899,1.432,4.044,2.532L509.85,20.593z"/>
		</g>
		<linearGradient id="SVGID_1_" gradientUnits="userSpaceOnUse" x1="305.0973" y1="55.2672" x2="278.6896" y2="13.495">
			<stop  offset="0" style="stop-color:#00A3BF"/>
			<stop  offset="1" style="stop-color:#7EFDD8"/>
		</linearGradient>
		<polygon fill="url(#SVGID_1_)" points="271.325,7.091 301.968,57.706 309.956,57.706 279.312,7.091 		"/>
		<g>
			<g>
				<g>
					<path fill="#FFFFFF" d="M95.612,26.764c-6.232,0-11.291,5.037-11.32,11.268h43.094c6.232,0,11.292-5.037,11.32-11.268H95.612z"
						/>
					<path fill="#FFFFFF" d="M95.612,7.086c-6.232,0-11.291,5.037-11.32,11.268h43.094c6.232,0,11.292-5.037,11.32-11.268H95.612z"
						/>
					<path fill="#FFFFFF" d="M95.612,46.443c-6.232,0-11.291,5.037-11.32,11.268h43.094c6.232,0,11.292-5.037,11.32-11.268H95.612z"
						/>
				</g>
				<g>
					
						<linearGradient id="SVGID_00000135679509967995416500000016197677966158896002_" gradientUnits="userSpaceOnUse" x1="35.0607" y1="8.7067" x2="35.0607" y2="19.0031">
						<stop  offset="0" style="stop-color:#7EFDD8"/>
						<stop  offset="1" style="stop-color:#00A3BF"/>
					</linearGradient>
					<polygon fill="url(#SVGID_00000135679509967995416500000016197677966158896002_)" points="35.061,0.561 26.416,14.498 
						35.061,28.434 43.705,14.498 					"/>
					<path fill="#FFFFFF" d="M58.606,7.093h-0.005l0,0l0,0H58.6v0.003L35.414,44.43L12.285,7.093H0.271l0.006,37.425
						c0.315,7.301,5.157,13.109,11.117,13.174c0.002,0.004,0.004,0.008,0.006,0.011h0.112l-0.004-29.407L29.53,57.704h11.078
						l17.988-29.394l-0.004,29.394h0.112c0.002-0.004,0.004-0.007,0.007-0.011c5.96-0.066,10.801-5.873,11.117-13.174l0.006-37.425
						H58.606z"/>
				</g>
				<path fill="#FFFFFF" d="M161.803,7.089c-6.232,0-11.291,5.037-11.32,11.268h24.034v28.031c0,0.001,0,0.001,0,0.001
					c0.001,6.231,5.037,11.29,11.268,11.318h0.001v-39.35h14.84c6.232,0,11.291-5.037,11.32-11.268H161.803z"/>
				<g>
					<path fill="#FFFFFF" d="M273.708,42.141L251.92,7.093h-17.777l-21.715,35.048c-3.291,5.292-1.686,12.248,3.591,15.563
						l26.992-43.64l27.107,43.64C275.394,54.389,277,47.432,273.708,42.141z"/>
					
						<linearGradient id="SVGID_00000111189150330690266450000007271099274298096271_" gradientUnits="userSpaceOnUse" x1="243.0681" y1="43.7112" x2="243.0681" y2="54.0077">
						<stop  offset="0" style="stop-color:#7EFDD8"/>
						<stop  offset="1" style="stop-color:#00A3BF"/>
					</linearGradient>
					<polygon fill="url(#SVGID_00000111189150330690266450000007271099274298096271_)" points="243.068,35.566 234.424,49.502 
						243.068,63.439 251.713,49.502 					"/>
				</g>
			</g>
		</g>
	</g>
</g>
</svg>
